<?xml version="1.0" encoding="UTF-8" standalone="no"?>
<svg
   width="24.586214mm"
   height="24.586214mm"
   viewBox="0 0 24.586212 24.586213"
   version="1.1"
   id="svg8"
   inkscape:version="1.3 (0e150ed6c4, 2023-07-21)"
   sodipodi:docname="index.svg"
   xmlns:inkscape="http://www.inkscape.org/namespaces/inkscape"
   xmlns:sodipodi="http://sodipodi.sourceforge.net/DTD/sodipodi-0.dtd"
   xmlns="http://www.w3.org/2000/svg"
   xmlns:svg="http://www.w3.org/2000/svg"
   xmlns:rdf="http://www.w3.org/1999/02/22-rdf-syntax-ns#"
   xmlns:cc="http://creativecommons.org/ns#"
   xmlns:dc="http://purl.org/dc/elements/1.1/">
  <defs
     id="defs2">
    <inkscape:path-effect
       effect="spiro"
       id="path-effect6"
       is_visible="true"
       lpeversion="1" />
    <inkscape:path-effect
       effect="spiro"
       id="path-effect8"
       is_visible="true"
       lpeversion="1" />
    <inkscape:path-effect
       effect="spiro"
       id="path-effect7"
       is_visible="true"
       lpeversion="1" />
    <inkscape:path-effect
       effect="spiro"
       id="path-effect5"
       is_visible="true"
       lpeversion="1" />
    <inkscape:path-effect
       effect="spiro"
       id="path-effect4"
       is_visible="true"
       lpeversion="1" />
    <inkscape:path-effect
       effect="spiro"
       id="path-effect3"
       is_visible="true"
       lpeversion="1" />
    <inkscape:path-effect
       effect="spiro"
       id="path-effect1"
       is_visible="true"
       lpeversion="1" />
    <inkscape:path-effect
       effect="spiro"
       id="path-effect1251"
       is_visible="true"
       lpeversion="1" />
    <inkscape:path-effect
       effect="spiro"
       id="path-effect895"
       is_visible="true"
       lpeversion="1" />
  </defs>
  <sodipodi:namedview
     id="base"
     pagecolor="#ffffff"
     bordercolor="#666666"
     borderopacity="1.0"
     inkscape:pageopacity="0.0"
     inkscape:pageshadow="2"
     inkscape:zoom="3.5790619"
     inkscape:cx="99.0483"
     inkscape:cy="65.100857"
     inkscape:document-units="mm"
     inkscape:current-layer="layer1"
     inkscape:document-rotation="0"
     showgrid="false"
     inkscape:window-width="1920"
     inkscape:window-height="1080"
     inkscape:window-x="0"
     inkscape:window-y="1024"
     inkscape:window-maximized="1"
     inkscape:snap-global="false"
     inkscape:showpageshadow="2"
     inkscape:pagecheckerboard="0"
     inkscape:deskcolor="#d1d1d1"
     showguides="true" />
  <metadata
     id="metadata5">
    <rdf:RDF>
      <cc:Work
         rdf:about="">
        <dc:format>image/svg+xml</dc:format>
        <dc:type
           rdf:resource="http://purl.org/dc/dcmitype/StillImage" />
      </cc:Work>
    </rdf:RDF>
  </metadata>
  <g
     inkscape:label="Layer 1"
     inkscape:groupmode="layer"
     id="layer1"
     transform="translate(-103.71105,-96.205322)">
    <path
       id="path6"
       style="fill:#e70045;fill-opacity:1;stroke:none;stroke-width:0.499999;stroke-linecap:square"
       d="m 121.89909,99.576692 -12.9279,0.0098 c 0.28118,0.362544 0.47133,0.781438 0.5855,1.207678 0.011,0.041 0.0177,0.082 0.0274,0.12299 h 0.004 l 5.2e-4,0.0191 c 0.19949,0.86545 0.11456,1.72698 0.009,2.51768 -0.57302,4.28155 -1.94471,8.38531 -1.90789,12.52895 0.005,0.53605 0.0508,1.02415 0.2465,1.37924 0.11964,0.21713 0.3066,0.40667 0.52451,0.53072 0.11122,0.0633 0.23303,0.111 0.35915,0.14262 l 0.41651,0.002 0.26355,0.002 c 0.1497,-0.0346 0.29591,-0.0889 0.42788,-0.16588 0.22231,-0.12972 0.4141,-0.32076 0.54933,-0.54312 0.16807,-0.27646 0.25227,-0.61342 0.23254,-0.93637 l -0.47542,-1.8309 11.58844,-0.0155 c 0.63524,-3.73928 1.23731,-7.48371 1.80454,-11.23394 0.1235,-0.81658 0.21452,-1.59127 -0.005,-2.22674 -0.14769,-0.42817 -0.44555,-0.82495 -0.81597,-1.163234 -0.14723,-0.134494 -0.28705,-0.234606 -0.4129,-0.283704 -0.11689,-0.04563 -0.28667,-0.0627 -0.49454,-0.06253 z m -15.08177,0.01237 c -0.32409,0.05912 -0.64005,0.271272 -0.8046,0.551908 -0.14035,0.23938 -0.48239,1.65132 -0.42658,1.93147 l 3.21953,-0.0122 c 0.21635,-0.3979 0.13159,-1.91922 -0.73903,-2.289247 -0.43123,-0.183279 -0.81916,-0.183487 -1.24932,-0.181931 z m 18.60558,15.952548 -13.88132,0.0196 c 0.0935,0.24561 0.15022,0.50539 0.1664,0.76998 0.0324,0.53103 -0.10028,1.06316 -0.37672,1.51773 -0.0419,0.069 -0.0899,0.13376 -0.13798,0.19844 l 12.64367,0.0682 -5.1e-4,-0.003 0.49816,-0.0543 c 0.46351,-0.0505 0.91946,-0.33827 1.16633,-0.7338 0.17071,-0.27359 0.25743,-0.60984 0.23772,-0.93173 -0.0186,-0.3035 -0.13287,-0.60716 -0.31575,-0.85111 z"
       sodipodi:nodetypes="cccccccscsccccccccccccccccccscccscccscccsc" />
    <g
       id="g1255"
       transform="matrix(0.31877122,0.94783169,0.94783169,-0.31877122,-4.6248535,15.568302)" />
  </g>
</svg>
